<svg id="Layer_1" data-name="Layer 1" xmlns="http://www.w3.org/2000/svg" viewBox="0 0 361.47 262.05"><defs><style>.cls-1{fill:#4fc8e9;}</style></defs><polygon class="cls-1" points="158.49 140.66 134.17 198.32 122.26 198.32 141.88 150.68 118.26 150.68 118.26 140.66 158.49 140.66"/><polygon class="cls-1" points="102.1 198.32 102.1 177.57 77.77 177.6 77.77 140.66 89.51 140.66 89.51 165.93 102.1 165.93 102.1 140.66 113.92 140.66 113.92 165.93 113.92 176.4 113.92 198.32 102.1 198.32"/><path class="cls-1" d="M478.37,335.17c-52.34-.12-113.33.69-165.72,1.39v-.09q-15,.15-30,.26c-51.56-2.38-100.79,27.12-126.29,71.44-14.2,28.3-28.58,57.18-39.42,86.84,0,0,16,0,38.51-9.94,22.8-10.05,41.83-26.89,55.59-47.66,17.78-26.83,41.57-45.36,77.7-43.41q12-.21,23.95-.37v.1q25.11-.25,50.23-.56c29.44.77,60.37.13,84.59-19.1C453.79,369.33,478.37,335.17,478.37,335.17Z" transform="translate(-116.9 -335.16)"/><path class="cls-1" d="M353.61,427.24c26.28-.28,52.55-.51,78.83-.85,47.25,1.66,56-11.66,35.6,30.24-11.9,23.49-20.52,48.66-34.08,71.29-27.33,44.54-78.21,71-130.37,67.42q-23.31.28-46.63.5h.77q-23.78.25-47.56.57c-23,.35-46,.51-69.06.79H116.9c12.47-29.73,43.21-52.46,74.56-57.39,21.71-1.26,43.49-1.37,65.27-1.43h0c37.31-1.79,80.06,7.33,108.4-23.08,5.24-5.45,33.09-34.27,12.18-32.54q-11.83,0-23.67.09l-34.16.89-34,.26c7-29.31,26.85-52.44,61.35-56.07Z" transform="translate(-116.9 -335.16)"/></svg>